<svg width="22" height="22" viewBox="0 0 22 22" fill="none" xmlns="http://www.w3.org/2000/svg">
<path d="M15.8957 7.8815L11 12.7779L6.10432 7.88218C5.8355 7.61337 5.40032 7.61337 5.13218 7.88218C4.86337 8.151 4.86337 8.5855 5.13218 8.85432L10.3964 14.1185C10.5614 14.2835 10.7869 14.3344 11.0007 14.2973C11.2139 14.3351 11.44 14.2835 11.605 14.1185L16.8692 8.85432C17.138 8.5855 17.138 8.151 16.8692 7.88218C16.5997 7.61337 16.1645 7.61337 15.8957 7.8815ZM11 0C4.92455 0 0 4.92455 0 11C0 17.0755 4.92455 22 11 22C17.0755 22 22 17.0747 22 11C22 4.92527 17.0755 0 11 0ZM11 20.625C5.68423 20.625 1.375 16.3158 1.375 11C1.375 5.68423 5.68423 1.375 11 1.375C16.3158 1.375 20.625 5.68423 20.625 11C20.625 16.3158 16.3158 20.625 11 20.625Z" fill="#D10056"/>
</svg>
